<!DOCTYPE svg PUBLIC "-//W3C//DTD SVG 1.1//EN" "http://www.w3.org/Graphics/SVG/1.1/DTD/svg11.dtd">
<!-- Uploaded to: SVG Repo, www.svgrepo.com, Transformed by: SVG Repo Mixer Tools -->
<svg fill="#ffffff" version="1.1" id="Layer_1" xmlns="http://www.w3.org/2000/svg" xmlns:xlink="http://www.w3.org/1999/xlink" viewBox="0 0 512 512" xml:space="preserve" width="800px" height="800px" stroke="#ffffff">
<g id="SVGRepo_bgCarrier" stroke-width="0"/>
<g id="SVGRepo_tracerCarrier" stroke-linecap="round" stroke-linejoin="round"/>
<g id="SVGRepo_iconCarrier"> <g> <g> <g> <rect x="245.333" y="384.006" width="21.333" height="21.333"/> <rect x="373.333" y="384.006" width="21.333" height="21.333"/> <rect x="117.333" y="384.006" width="21.333" height="21.333"/> <path d="M490.667,0H21.333C9.536,0,0,9.557,0,21.333V128h512V21.333C512,9.557,502.464,0,490.667,0z M85.333,106.667 C73.557,106.667,64,97.109,64,85.333S73.557,64,85.333,64s21.333,9.557,21.333,21.333S97.109,106.667,85.333,106.667z M149.333,106.667c-11.776,0-21.333-9.557-21.333-21.333S137.557,64,149.333,64s21.333,9.557,21.333,21.333 S161.109,106.667,149.333,106.667z M213.333,106.667c-11.776,0-21.333-9.557-21.333-21.333S201.557,64,213.333,64 s21.333,9.557,21.333,21.333S225.109,106.667,213.333,106.667z"/> <rect x="106.667" y="234.673" width="298.667" height="42.667"/> <path d="M0,490.667C0,502.443,9.536,512,21.333,512h469.333c11.797,0,21.333-9.557,21.333-21.333v-320H0V490.667z M181.333,426.667c0,11.776-9.536,21.333-21.333,21.333H96c-11.797,0-21.333-9.557-21.333-21.333v-64 c0-11.776,9.536-21.333,21.333-21.333h64c11.797,0,21.333,9.557,21.333,21.333V426.667z M309.333,426.667 c0,11.776-9.536,21.333-21.333,21.333h-64c-11.797,0-21.333-9.557-21.333-21.333v-64c0-11.776,9.536-21.333,21.333-21.333h64 c11.797,0,21.333,9.557,21.333,21.333V426.667z M437.333,426.667c0,11.776-9.536,21.333-21.333,21.333h-64 c-11.797,0-21.333-9.557-21.333-21.333v-64c0-11.776,9.536-21.333,21.333-21.333h64c11.797,0,21.333,9.557,21.333,21.333V426.667 z M64,213.333C64,201.557,73.536,192,85.333,192h341.333c11.797,0,21.333,9.557,21.333,21.333v85.333 c0,11.776-9.536,21.333-21.333,21.333H85.333C73.536,320,64,310.443,64,298.667V213.333z"/> </g> </g> </g> </g>
</svg>