<?xml version="1.0" encoding="iso-8859-1"?>
<!-- Uploaded to: SVG Repo, www.svgrepo.com, Generator: SVG Repo Mixer Tools -->
<svg fill="#fff" height="800px" width="800px" version="1.1" id="Layer_1" xmlns="http://www.w3.org/2000/svg" xmlns:xlink="http://www.w3.org/1999/xlink" 
	 viewBox="0 0 512 512" xml:space="preserve">
<g>
	<g>
		<g>
			<path d="M500.23,0H11.77C5.271,0,0,5.271,0,11.77v488.46c0,6.5,5.271,11.77,11.77,11.77h488.46c6.5,0,11.77-5.271,11.77-11.77
				V11.77C512,5.271,506.729,0,500.23,0z M488.46,488.46H23.54V82.391h464.92V488.46z M488.46,58.851H23.54V23.54h464.92V58.851z"/>
			<path d="M112.044,155.941H444.91c6.499,0,11.77-5.271,11.77-11.77s-5.271-11.77-11.77-11.77H112.044
				c-6.499,0-11.77,5.271-11.77,11.77S105.545,155.941,112.044,155.941z"/>
			<path d="M67.09,155.941h4.154c6.499,0,11.77-5.271,11.77-11.77s-5.271-11.77-11.77-11.77H67.09c-6.499,0-11.77,5.271-11.77,11.77
				S60.59,155.941,67.09,155.941z"/>
			<path d="M67.09,203.022H444.91c6.499,0,11.77-5.271,11.77-11.77s-5.271-11.77-11.77-11.77H67.09
				c-6.499,0-11.77,5.271-11.77,11.77S60.59,203.022,67.09,203.022z"/>
			<path d="M67.09,250.102h156.38c6.5,0,11.77-5.271,11.77-11.77c0-6.499-5.269-11.77-11.77-11.77H67.09
				c-6.499,0-11.77,5.271-11.77,11.77C55.32,244.831,60.59,250.102,67.09,250.102z"/>
			<path d="M221.116,273.642c-6.499,0-11.77,5.271-11.77,11.77s5.271,11.77,11.77,11.77h2.354c6.5,0,11.77-5.271,11.77-11.77
				s-5.269-11.77-11.77-11.77H221.116z"/>
			<path d="M67.09,297.182h112.634c6.5,0,11.77-5.271,11.77-11.77s-5.271-11.77-11.77-11.77H67.09c-6.499,0-11.77,5.271-11.77,11.77
				S60.59,297.182,67.09,297.182z"/>
			<path d="M67.09,344.263h156.38c6.5,0,11.77-5.271,11.77-11.77s-5.269-11.77-11.77-11.77H67.09c-6.499,0-11.77,5.271-11.77,11.77
				S60.59,344.263,67.09,344.263z"/>
			<path d="M108.27,367.803c-6.5,0-11.77,5.271-11.77,11.77c0,6.499,5.271,11.77,11.77,11.77h115.2c6.5,0,11.77-5.271,11.77-11.77
				c0-6.5-5.269-11.77-11.77-11.77H108.27z"/>
			<path d="M67.09,391.343h1.603c6.499,0,11.77-5.271,11.77-11.77c0-6.5-5.271-11.77-11.77-11.77H67.09
				c-6.499,0-11.77,5.271-11.77,11.77C55.32,386.073,60.59,391.343,67.09,391.343z"/>
			<path d="M67.09,438.424h156.38c6.5,0,11.77-5.271,11.77-11.77s-5.269-11.77-11.77-11.77H67.09c-6.499,0-11.77,5.271-11.77,11.77
				S60.59,438.424,67.09,438.424z"/>
			<path d="M444.91,226.562H284.674c-6.5,0-11.77,5.271-11.77,11.77v188.322c0,6.499,5.271,11.77,11.77,11.77H444.91
				c6.499,0,11.77-5.271,11.77-11.77V238.332C456.68,231.832,451.41,226.562,444.91,226.562z M433.14,414.884H296.444V250.102
				H433.14V414.884z"/>
		</g>
	</g>
</g>
</svg>